<svg xmlns="http://www.w3.org/2000/svg" xml:space="preserve" width="100" height="100"><path fill="#00599c" d="M87.733 75c.697-1.208 1.13-2.569 1.13-3.79V28.79c0-1.221-.432-2.582-1.13-3.79L44.432 50Z" style="stroke-width:.290403" transform="translate(5.568)"/><path fill="#004482" d="m48.28 99.083 36.735-21.209c1.059-.61 2.02-1.666 2.718-2.874L44.432 50 1.13 75c.697 1.208 1.659 2.263 2.717 2.874l36.736 21.21c2.116 1.221 5.58 1.221 7.696 0z" style="stroke-width:.290403" transform="translate(5.568)"/><path fill="#659ad2" d="M87.733 25c-.697-1.208-1.66-2.263-2.718-2.874L48.28.916c-2.117-1.222-5.58-1.222-7.696 0L3.848 22.127C1.73 23.348 0 26.346 0 28.79v42.418C0 72.431.433 73.792 1.13 75l43.302-25Z" style="stroke-width:.290403" transform="translate(5.568)"/><path fill="#fff" d="M44.432 79.621c-16.333 0-29.621-13.288-29.621-29.62 0-16.334 13.288-29.622 29.62-29.622 10.54 0 20.37 5.672 25.652 14.801l-12.819 7.418a14.873 14.873 0 0 0-12.832-7.408c-8.167 0-14.81 6.643-14.81 14.81 0 8.167 6.643 14.81 14.81 14.81a14.873 14.873 0 0 0 12.833-7.409l12.82 7.418C64.8 73.949 54.971 79.62 44.431 79.62Z" style="stroke-width:.290403" transform="translate(5.568)"/><path fill="#fff" d="M74.053 48.354H70.76v-3.29h-3.29v3.29h-3.292v3.292h3.292v3.291h3.29v-3.291h3.292zm12.342 0h-3.292v-3.29h-3.29v3.29H76.52v3.292h3.292v3.291h3.29v-3.291h3.292z" style="stroke-width:.290403" transform="translate(5.568)"/></svg>