<?xml version="1.0" encoding="UTF-8" standalone="no"?>
<svg
   inkscape:version="1.2.2 (732a01da63, 2022-12-09)"
   id="svg64"
   version="1.1"
   viewBox="0 0 78.568907 52.263576"
   height="52.263577mm"
   width="78.568909mm"
   sodipodi:docname="manim.svg"
   xmlns:inkscape="http://www.inkscape.org/namespaces/inkscape"
   xmlns:sodipodi="http://sodipodi.sourceforge.net/DTD/sodipodi-0.dtd"
   xmlns="http://www.w3.org/2000/svg"
   xmlns:svg="http://www.w3.org/2000/svg"
   xmlns:rdf="http://www.w3.org/1999/02/22-rdf-syntax-ns#"
   xmlns:cc="http://creativecommons.org/ns#"
   xmlns:dc="http://purl.org/dc/elements/1.1/">
  <defs
     id="defs58" />
  <sodipodi:namedview
     inkscape:snap-page="false"
     inkscape:window-maximized="1"
     inkscape:window-y="-9"
     inkscape:window-x="-9"
     inkscape:window-height="1261"
     inkscape:window-width="2400"
     fit-margin-bottom="0"
     fit-margin-right="0"
     fit-margin-left="0"
     fit-margin-top="0"
     showgrid="false"
     inkscape:document-rotation="0"
     inkscape:current-layer="layer1"
     inkscape:document-units="mm"
     inkscape:cy="66.233756"
     inkscape:cx="94.4402"
     inkscape:zoom="4.3784321"
     inkscape:pageshadow="2"
     inkscape:pageopacity="0.0"
     borderopacity="1.0"
     bordercolor="#666666"
     pagecolor="#ffffff"
     id="base"
     inkscape:showpageshadow="0"
     inkscape:pagecheckerboard="1"
     inkscape:deskcolor="#d1d1d1" />
  <metadata
     id="metadata61">
    <rdf:RDF>
      <cc:Work
         rdf:about="">
        <dc:format>image/svg+xml</dc:format>
        <dc:type
           rdf:resource="http://purl.org/dc/dcmitype/StillImage" />
      </cc:Work>
    </rdf:RDF>
  </metadata>
  <g
     transform="translate(-38.95661,-23.76107)"
     id="layer1"
     inkscape:groupmode="layer"
     inkscape:label="Ebene 1">
    <g
       id="g86"
       transform="translate(-152.56314,14.339231)">
      <path
         inkscape:connector-curvature="0"
         d="m 270.08866,54.482299 h -23.55221 l 11.7761,-20.39681 z"
         id="path34"
         style="fill:#e07a5f;fill-opacity:1;stroke:none;stroke-width:0.381578;stroke-miterlimit:4;stroke-dasharray:none;stroke-opacity:1" />
      <rect
         y="20.803919"
         x="231.22784"
         height="27.255585"
         width="27.255585"
         id="rect36"
         style="fill:#525893;fill-opacity:1;stroke:none;stroke-width:0.547864;stroke-miterlimit:4;stroke-dasharray:none;stroke-opacity:1" />
      <circle
         r="13.947841"
         cy="47.737576"
         cx="230.86613"
         id="circle38"
         style="fill:#87c2a5;fill-opacity:1;stroke:none;stroke-width:0.406653;stroke-miterlimit:4;stroke-dasharray:none;stroke-opacity:1" />
      <path
         style="fill:#343434;fill-opacity:1;stroke:none;stroke-width:4.94272"
         d="m 213.60755,32.822539 -9.4221,-22.39672 c -0.3861,-1.0039802 -0.3861,-1.0039802 -1.7762,-1.0039802 h -9.1132 c -0.9268,0 -1.6218,0 -1.6218,0.8495302 0,0.84952 0.8495,0.84952 1.0812,0.84952 0.6178,0 1.9307,0.15447 3.012,0.54061 v 26.25823 c 0,1.08121 0,3.24365 -3.3209,3.55258 -0.9268,0.0772 -0.9268,0.7723 -0.9268,0.84954 0,0.84952 0.7723,0.84952 1.6991,0.84952 h 7.5685 c 0.9268,0 1.6219,0 1.6219,-0.84952 0,-0.46338 -0.3862,-0.84954 -0.7723,-0.84954 -3.7843,-0.30893 -3.7843,-2.39413 -3.7843,-3.55258 v -24.48193 l 0.077,-0.0772 11.9706,28.80681 c 0.4634,0.84954 0.7724,1.004 1.0813,1.004 0.6178,0 0.695,-0.38615 1.004,-1.004 l 12.0479,-28.80681 0.077,0.0772 v 24.48193 c 0,1.08121 0,3.24365 -3.3982,3.55258 -0.9267,0.0772 -0.9267,0.7723 -0.9267,0.84954 0,0.84952 0.7723,0.84952 1.6991,0.84952 h 13.1291 c 0.9267,0 1.6218,0 1.6218,-0.84952 0,-0.46338 -0.3862,-0.84954 -0.7723,-0.84954 -3.7843,-0.30893 -3.7843,-2.39413 -3.7843,-3.55258 v -23.24624 c 0,-1.08123 0,-3.24368 3.3209,-3.5526 0.5406,0 0.9268,-0.30891 0.9268,-0.84952 0,-0.8495302 -0.6951,-0.8495302 -1.6219,-0.8495302 h -9.4993 c -1.2356,0 -1.3901,0 -1.7763,1.0039802 z m -1.4674,0.92677 c 0.3862,0.77229 0.4634,0.84952 1.0813,1.08121 l -2.2397,5.17441 h -0.077 l -11.1984,-26.79882 c -0.2317,-0.61785 -0.6951,-1.46737 -1.3129,-2.08522 h 4.2477 z m 13.6698,-22.62842 h 5.2516 c -1.1585,1.23568 -1.1585,2.5486 -1.1585,3.39813 v 23.55516 c 0,0.84954 0,2.16244 1.1585,3.39813 h -6.3329 c 1.0813,-1.23569 1.0813,-2.54859 1.0813,-3.39813 z"
         id="path1500"
         inkscape:connector-curvature="0" />
    </g>
    <path
       style="fill:#ffffff;fill-opacity:1;stroke:#000000;stroke-width:0;stroke-linejoin:round"
       d="M 129.60192,51.033279 V 6.5406575 h 9.76414 9.76413 l -0.7725,1.0206209 c -1.52651,2.0167962 -2.35809,3.8268486 -2.98122,6.4890226 -0.34014,1.453148 -0.34023,1.462218 -0.39043,39.768813 -0.0276,21.073434 -0.10328,38.315334 -0.16814,38.315334 -0.63994,0 -4.63653,0.563363 -6.30634,0.888951 -2.32509,0.453356 -5.95484,1.442864 -7.66172,2.088661 -0.60159,0.227612 -1.12848,0.41384 -1.17086,0.41384 -0.0424,0 -0.0771,-20.02168 -0.0771,-44.492621 z"
       id="path936"
       transform="matrix(0.26458333,0,0,0.26458333,38.95661,23.76107)" />
    <path
       style="fill:#ffffff;fill-opacity:1;stroke:#000000;stroke-width:0;stroke-linejoin:round"
       d="M 68.360845,103.63645 C 50.487445,60.726372 30.176549,12.272551 29.691082,11.385589 28.852374,9.8532453 27.79413,8.2987577 26.952119,7.3622384 L 26.213447,6.5406575 h 7.892948 7.892948 l 0.172887,0.4441188 c 0.723188,1.8577579 35.419726,84.3864717 35.900279,85.3919177 0.95109,1.98994 1.474327,2.604345 2.730624,3.206408 l 1.08691,0.520888 -4.204291,9.72228 c -2.31236,5.34725 -4.240628,9.72085 -4.28504,9.7191 -0.04441,-0.002 -2.312351,-5.36076 -5.039867,-11.90892 z"
       id="path2387"
       transform="matrix(0.26458333,0,0,0.26458333,38.95661,23.76107)" />
  </g>
</svg>
