<svg xmlns="http://www.w3.org/2000/svg" xml:space="preserve" width="1600" height="1600" preserveAspectRatio="xMidYMid" version="1.0" viewBox="0 0 1200 1200"><g transform="matrix(.1 0 0 -.1 15.219 1185.143)"><circle cx="5847.811" cy="-5851.433" r="6000" style="fill:#4a5f88;fill-opacity:1;stroke:#ff2828;stroke-width:0;stroke-linejoin:round" transform="scale(1 -1)"/><path d="M4329.726 9985.959c-112.245-45.918-209.184-85.277-215.015-87.464-5.83-2.186-29.154-10.932-51.02-18.95-21.866-8.746-53.207-21.137-69.242-27.697-16.035-7.288-51.75-21.866-80.175-32.799-27.697-11.662-60.496-24.781-72.886-29.883-11.662-5.102-57.58-23.324-100.584-40.088-44.46-17.492-81.632-36.443-86.006-43.731-10.203-20.408-16.763-131.196-16.763-301.75.729-169.096 10.933-550.292 20.408-728.863 2.186-40.088 5.83-114.432 8.746-164.723l4.373-91.837-202.624-201.895-201.895-201.167-266.764 5.103c-464.286 8.746-938.776 4.373-995.627-8.018-8.018-2.187-23.324-5.102-34.257-7.289-16.035-3.644-22.595-13.848-42.274-60.495-23.324-59.038-27.697-68.513-45.918-111.516-5.831-13.849-43.003-104.228-81.633-200.438-38.63-96.21-75.073-184.402-80.175-196.793-10.933-24.781-86.006-207.726-105.685-258.746-7.289-18.222-16.035-41.546-20.408-52.479-7.29-17.492-5.102-24.052 24.78-64.14 40.817-56.122 250.73-271.137 436.59-448.25 53.936-51.75 225.219-212.829 255.831-241.254 21.137-20.409 151.604-140.671 190.962-177.114l18.95-17.493 2.916-288.63 2.187-287.901-75.073-72.157c-123.178-117.347-457.726-451.896-577.26-577.26-98.396-102.77-129.738-137.027-196.793-215.015-8.746-10.204-23.324-29.883-32.07-45.19l-16.764-26.239 99.126-231.05c53.936-127.55 98.396-232.507 98.396-233.964 0-1.458 8.018-19.68 17.493-40.817 9.475-21.137 45.918-105.685 80.175-188.046 94.752-223.762 86.735-208.455 118.805-215.015 43.002-8.018 58.309-9.475 151.603-14.577 83.82-4.374 710.642-5.103 870.992 0 42.274.728 116.618 2.915 166.18 3.644l88.922 2.186 207.726-206.268 206.998-206.997.729-295.19c1.457-550.291 13.12-857.872 37.172-975.22 3.644-20.408 10.933-38.63 16.035-40.816 28.425-11.662 347.667-146.501 365.89-154.52 12.39-5.83 66.326-28.424 120.262-51.02 53.935-22.594 108.6-45.188 120.262-51.02 72.886-32.07 270.408-113.701 283.528-117.346 26.968-6.56 96.939 51.75 279.883 232.507 82.362 80.904 327.26 333.09 408.893 420.554 13.12 13.848 61.224 64.87 106.414 112.974 45.19 48.105 91.837 98.397 104.227 111.516l22.595 24.053 290.088-3.644 289.358-4.374 256.56-257.29c427.114-428.57 653.79-639.94 698.98-650.873 8.747-2.187 91.837 27.697 204.082 72.885 789.36 316.327 701.167 279.155 706.998 294.46 20.408 53.937 16.764 597.67-7.289 1021.868-1.458 34.257-5.102 107.872-7.289 163.994l-4.373 102.041 201.895 200.438 201.167 199.708 113.702-2.915c195.336-5.102 1029.885-3.645 1091.109 1.458 74.344 6.56 103.499 12.39 112.245 23.323 4.373 5.102 32.07 70.7 62.683 146.502 72.157 178.571 235.422 578.717 243.44 597.668 3.644 8.017 18.222 43.003 32.07 77.26 31.341 79.445 33.527 73.614-78.718 195.335-126.822 136.297-435.86 435.86-713.557 690.233-48.105 43.732-94.023 86.735-102.04 96.21-13.849 15.306-14.578 27.697-16.764 301.02l-2.916 284.258 319.971 318.513c335.277 333.82 416.91 418.367 501.458 519.68 80.904 96.938 79.447 94.023 59.039 143.586-95.482 233.965-368.077 856.414-376.823 861.516-34.257 18.222-196.793 25.51-575.802 24.781-178.572 0-413.266-2.186-522.595-4.373l-198.251-4.373-206.998 204.81-207.726 205.54-4.373 451.896c-2.186 248.542-5.83 478.134-8.017 510.204-1.458 32.07-4.373 88.192-6.56 123.907-4.373 88.192-11.662 153.79-21.866 192.42-8.017 31.34-9.475 32.798-66.327 56.85-32.07 13.85-67.784 29.155-80.175 34.257-11.661 5.831-51.02 21.866-87.463 37.173-35.714 14.577-75.073 31.34-87.464 36.443-11.662 5.102-96.939 40.816-189.504 80.175-91.837 38.63-177.114 74.344-189.505 80.175-82.361 37.172-201.166 83.819-212.099 83.819-26.968 0-137.026-96.939-330.904-292.274-94.023-94.753-317.056-325.802-389.942-403.79-14.577-16.036-60.495-64.87-101.312-108.601-40.087-43.732-77.26-83.09-82.361-88.193-5.831-6.56-81.633-8.017-295.919-5.102l-287.901 2.916-287.172 285.714c-337.464 336.006-540.817 529.884-590.38 564.141-9.475 6.56-18.221 13.848-20.408 16.035-13.848 17.492-59.038 43.731-73.615 43.003-9.475 0-109.33-37.901-221.574-83.82zm1559.768-2760.935c61.953-3.644 144.315-15.306 204.082-29.154 8.017-1.458 30.612-6.56 51.02-11.662 117.347-26.968 306.123-110.787 419.096-185.86 291.546-195.335 494.17-477.406 579.447-809.038 104.227-404.52 15.306-836.007-241.983-1173.47-56.122-73.616-153.79-173.47-231.778-236.152-209.184-168.368-451.167-268.951-728.864-303.936-98.396-12.391-287.9-6.56-386.297 12.39-24.053 4.374-53.207 9.476-65.598 11.662-11.662 2.187-49.563 11.662-83.82 21.137-368.804 105.685-676.385 353.499-854.227 688.047-55.394 103.499-114.432 266.035-126.094 344.753-2.915 16.764-6.56 32.798-8.017 35.714-9.475 15.306-23.324 168.367-23.324 260.933.73 252.187 55.394 451.895 190.962 696.065 10.205 18.95 64.87 101.312 69.971 105.685 2.187 2.186 13.849 16.764 25.51 32.799 32.8 43.732 45.919 59.038 105.686 120.262 246.356 252.916 577.26 403.062 922.012 420.554 48.105 2.187 88.921 5.102 89.65 6.56 1.458.728 6.56.728 10.933-.729 5.102-1.458 41.545-4.373 81.633-6.56z" style="fill:#fff;fill-opacity:1;stroke-width:.728863"/></g></svg>