<?xml version="1.0" encoding="UTF-8" standalone="no"?>
<svg
   version="1.0"
   width="1200pt"
   height="1200pt"
   viewBox="0 0 1200 1200"
   preserveAspectRatio="xMidYMid"
   id="svg8"
   sodipodi:docname="phorge.svg"
   xml:space="preserve"
   inkscape:version="1.2.2 (732a01da63, 2022-12-09)"
   xmlns:inkscape="http://www.inkscape.org/namespaces/inkscape"
   xmlns:sodipodi="http://sodipodi.sourceforge.net/DTD/sodipodi-0.dtd"
   xmlns="http://www.w3.org/2000/svg"
   xmlns:svg="http://www.w3.org/2000/svg"><defs
     id="defs12" /><sodipodi:namedview
     id="namedview10"
     pagecolor="#505050"
     bordercolor="#ffffff"
     borderopacity="1"
     inkscape:showpageshadow="0"
     inkscape:pageopacity="0"
     inkscape:pagecheckerboard="1"
     inkscape:deskcolor="#505050"
     inkscape:document-units="pt"
     showgrid="false"
     inkscape:zoom="0.53397436"
     inkscape:cx="634.86194"
     inkscape:cy="630.18007"
     inkscape:window-width="1920"
     inkscape:window-height="991"
     inkscape:window-x="2391"
     inkscape:window-y="757"
     inkscape:window-maximized="1"
     inkscape:current-layer="svg8" /><metadata
     id="metadata2">
Created by potrace 1.11, written by Peter Selinger 2001-2013
</metadata><g
     transform="matrix(0.1,0,0,-0.1,15.218868,1185.1433)"
     fill="#000000"
     stroke="none"
     id="g6"><circle
       style="fill:#4a5f88;fill-opacity:1;stroke:#ff2828;stroke-width:0;stroke-linejoin:round"
       id="path293"
       cx="5847.8115"
       cy="-5851.4331"
       r="6000"
       transform="scale(1,-1)" /><path
       d="m 4329.7261,9985.959 c -112.245,-45.9184 -209.1839,-85.277 -215.0148,-87.4636 -5.8309,-2.1866 -29.1545,-10.9329 -51.0204,-18.9504 -21.8659,-8.7464 -53.207,-21.1371 -69.242,-27.6969 -16.035,-7.2886 -51.7493,-21.8658 -80.175,-32.7988 -27.6967,-11.6618 -60.4956,-24.7814 -72.8863,-29.8834 -11.6618,-5.102 -57.5802,-23.3236 -100.5831,-40.0875 -44.4607,-17.4927 -81.6327,-36.4432 -86.006,-43.7318 -10.204,-20.4081 -16.7638,-131.1954 -16.7638,-301.7495 0.729,-169.0963 10.9329,-550.2917 20.4082,-728.8633 2.1865,-40.0875 5.8309,-114.4316 8.7463,-164.7231 l 4.3732,-91.8368 -202.624,-201.8952 -201.8952,-201.1663 -266.764,5.1021 c -464.286,8.7464 -938.7761,4.3731 -995.6275,-8.0176 -8.0175,-2.1865 -23.3236,-5.102 -34.2565,-7.2886 -16.0351,-3.6443 -22.5948,-13.8483 -42.2742,-60.4956 -23.3236,-59.038 -27.6967,-68.5132 -45.9183,-111.5161 -5.8309,-13.8484 -43.003,-104.2275 -81.6327,-200.4375 -38.6298,-96.2099 -75.073,-184.4024 -80.175,-196.7931 -10.933,-24.7813 -86.0059,-207.7261 -105.6852,-258.7465 -7.2887,-18.2216 -16.035,-41.5453 -20.4082,-52.4782 -7.2887,-17.4927 -5.102,-24.0525 24.7813,-64.14 40.8164,-56.1225 250.7291,-271.1372 436.5893,-448.251 53.9359,-51.7493 225.2187,-212.8281 255.831,-241.2538 21.1371,-20.4082 151.6036,-140.6706 190.9622,-177.1138 l 18.9505,-17.4927 2.9155,-288.63 2.1865,-287.901 -75.0729,-72.1574 c -123.1779,-117.3471 -457.7262,-451.8954 -577.2598,-577.2599 -98.3966,-102.7698 -129.7378,-137.0263 -196.7932,-215.0148 -8.7463,-10.204 -23.3236,-29.8833 -32.07,-45.1895 l -16.7638,-26.239 99.1254,-231.0498 c 53.936,-127.551 98.3966,-232.5073 98.3966,-233.9651 0,-1.4576 8.0175,-19.6792 17.4927,-40.8163 9.4752,-21.137 45.9184,-105.6851 80.175,-188.0467 94.7522,-223.7611 86.7347,-208.455 118.8047,-215.0147 43.0029,-8.0176 58.3091,-9.4753 151.6036,-14.5773 83.8193,-4.3732 710.6418,-5.1021 870.9918,0 42.2741,0.728 116.6181,2.9155 166.1809,3.6443 l 88.9213,2.1866 207.7261,-206.2684 206.9973,-206.9972 0.729,-295.1895 c 1.4577,-550.2916 13.1195,-857.8725 37.1721,-975.2195 3.6443,-20.409 10.9329,-38.63 16.0349,-40.817 28.4258,-11.662 347.6679,-146.501 365.8895,-154.519 12.3907,-5.83 66.3265,-28.425 120.2625,-51.02 53.9358,-22.595 108.6006,-45.189 120.2624,-51.02 72.8863,-32.071 270.4084,-113.7019 283.5279,-117.3469 26.9679,-6.559 96.9388,51.75 279.8835,232.5069 82.3616,80.904 327.2597,333.09 408.8924,420.554 13.1195,13.848 61.2246,64.8696 106.4141,112.974 45.1895,48.1053 91.8368,98.3971 104.2275,111.5166 l 22.5947,24.0527 290.0876,-3.6444 289.3588,-4.3738 256.56,-257.2891 c 427.1139,-428.571 653.7904,-639.9409 698.9799,-650.8739 8.7463,-2.187 91.8368,27.697 204.0817,72.8853 789.3592,316.3266 701.1667,279.1546 706.9976,294.4606 20.4082,53.936 16.7639,597.6691 -7.2887,1021.8676 -1.4576,34.2563 -5.102,107.8713 -7.2886,163.9939 l -4.3732,102.0409 201.8952,200.4374 201.1663,199.7085 113.7027,-2.9154 c 195.3354,-5.102 1029.8843,-3.6443 1091.1082,1.4578 74.3444,6.5598 103.4994,12.3907 112.2452,23.3236 4.3728,5.102 32.0699,70.6998 62.6828,146.5016 72.157,178.5714 235.4224,578.7174 243.4404,597.6679 3.644,8.0175 18.222,43.0029 32.07,77.2595 31.341,79.4461 33.527,73.6152 -78.718,195.3354 -126.8218,136.2974 -435.8602,435.8603 -713.5567,690.2336 -48.105,43.7318 -94.0234,86.7348 -102.0409,96.21 -13.8483,15.3061 -14.5772,27.6968 -16.7638,301.0206 l -2.9154,284.2568 319.971,318.5132 c 335.2773,333.8195 416.9095,418.3677 501.4576,519.6797 80.9042,96.9388 79.4472,94.0234 59.0392,143.5861 -95.482,233.9652 -368.0766,856.4145 -376.8233,861.5165 -34.2564,18.2216 -196.7931,25.5103 -575.8021,24.7814 -178.5715,0 -413.2655,-2.1865 -522.595,-4.3732 l -198.2509,-4.3731 -206.9972,204.8106 -207.7261,205.5395 -4.3732,451.8953 c -2.1866,248.5424 -5.8309,478.1343 -8.0175,510.2043 -1.4577,32.07 -4.3731,88.1925 -6.5598,123.9068 -4.3731,88.1924 -11.6618,153.7902 -21.8658,192.42 -8.0175,31.3411 -9.4753,32.7987 -66.3266,56.8513 -32.07,13.8483 -67.7843,29.1545 -80.175,34.2565 -11.6618,5.8309 -51.0204,21.866 -87.4636,37.1721 -35.7143,14.5773 -75.0729,31.3411 -87.4636,36.4432 -11.6618,5.102 -96.9389,40.8163 -189.5045,80.175 -91.8368,38.6297 -177.1138,74.344 -189.5045,80.1749 -82.3616,37.1724 -201.1663,83.8194 -212.0992,83.8194 -26.968,0 -137.0264,-96.9389 -330.9041,-292.2743 -94.0233,-94.7523 -317.0555,-325.802 -389.9418,-403.7904 -14.5773,-16.0349 -60.4956,-64.8688 -101.312,-108.6006 -40.0875,-43.7319 -77.2596,-83.0903 -82.3616,-88.1923 -5.8309,-6.5598 -81.6327,-8.0176 -295.9185,-5.1022 l -287.9011,2.9155 -287.1722,285.7144 c -337.4637,336.006 -540.8167,529.8837 -590.3794,564.1409 -9.4751,6.56 -18.2215,13.848 -20.4082,16.035 -13.8483,17.492 -59.0378,43.731 -73.6151,43.003 -9.4752,0 -109.3296,-37.901 -221.5745,-83.82 z M 5889.4939,7225.0244 c 61.9533,-3.6442 144.3149,-15.306 204.0817,-29.1545 8.0175,-1.4577 30.6122,-6.5597 51.0204,-11.6618 117.347,-26.9679 306.1227,-110.7873 419.0964,-185.8602 291.5453,-195.3354 494.1694,-477.4055 579.4465,-809.0383 104.2274,-404.5193 15.306,-836.0065 -241.9827,-1173.4702 -56.1225,-73.6153 -153.7903,-173.4695 -231.7786,-236.1518 -209.1837,-168.3674 -451.1664,-268.9506 -728.8633,-303.9361 -98.3966,-12.3906 -287.9011,-6.5596 -386.2976,12.3908 -24.0525,4.3732 -53.2071,9.4752 -65.5978,11.6618 -11.6618,2.1865 -49.5627,11.6618 -83.8192,21.137 -368.805,105.6853 -676.3853,353.4988 -854.228,688.0471 -55.3936,103.4986 -114.4316,266.0352 -126.0934,344.7524 -2.9154,16.7639 -6.5598,32.7988 -8.0175,35.7143 -9.4752,15.3061 -23.3236,168.3675 -23.3236,260.9331 0.729,252.1867 55.3936,451.8954 190.9622,696.0646 10.2041,18.9505 64.8689,101.312 69.9709,105.6852 2.1866,2.1866 13.8484,16.7638 25.5103,32.7989 32.7987,43.7318 45.9183,59.0378 105.6851,120.2624 246.3559,252.9157 577.2598,403.0615 922.0123,420.5542 48.105,2.1866 88.9213,5.102 89.6501,6.5598 1.4578,0.728 6.5598,0.728 10.9331,-0.729 5.102,-1.4578 41.5451,-4.3732 81.6327,-6.5598 z"
       id="path4"
       style="fill:#ffffff;fill-opacity:1;stroke-width:0.728863" /></g></svg>
