<svg xmlns="http://www.w3.org/2000/svg" xml:space="preserve" width="96" height="96"><defs><clipPath id="a"><path d="M12 344h72v56.47H12Z"/></clipPath></defs><path d="M0 0h96v96H0z" style="fill:#fff;stroke:#ff2828;stroke-width:0;stroke-linejoin:round"/><g clip-path="url(#a)" transform="matrix(2.29281 0 0 -2.31103 -60.906 925.496)"><path d="M49.92 387.3c0-5.937-3.726-11.54-10.94-12.77l10.16-11.88 1.014 1.346 18.28 25.65v10.87h-29.57c7.334-1.231 11.06-7.172 11.06-13.22z" style="fill:#f6b21a"/><path d="m55.11 360.5 13.32 18.6v-20.17H54.1Zm-25.95 19.49h7.108c5.081 0 7.677 3.699 7.677 7.283 0 3.588-2.486 7.287-7.677 7.287h-9.704v-35.63h17.72l-15.24 18.26v2.801z" style="fill:#2a3172"/></g></svg>