<?xml version="1.0" encoding="UTF-8" standalone="no"?>
<svg
   version="1.1"
   viewBox="0 0 96 95.999999"
   xml:space="preserve"
   id="svg31"
   sodipodi:docname="riscv.svg"
   width="96"
   height="96"
   inkscape:version="1.2.2 (732a01da63, 2022-12-09)"
   xmlns:inkscape="http://www.inkscape.org/namespaces/inkscape"
   xmlns:sodipodi="http://sodipodi.sourceforge.net/DTD/sodipodi-0.dtd"
   xmlns="http://www.w3.org/2000/svg"
   xmlns:svg="http://www.w3.org/2000/svg"
   xmlns:rdf="http://www.w3.org/1999/02/22-rdf-syntax-ns#"
   xmlns:cc="http://creativecommons.org/ns#"
   xmlns:dc="http://purl.org/dc/elements/1.1/"><sodipodi:namedview
     id="namedview33"
     pagecolor="#505050"
     bordercolor="#ffffff"
     borderopacity="1"
     inkscape:showpageshadow="0"
     inkscape:pageopacity="0"
     inkscape:pagecheckerboard="1"
     inkscape:deskcolor="#505050"
     showgrid="false"
     inkscape:zoom="11.063886"
     inkscape:cx="36.424815"
     inkscape:cy="81.210164"
     inkscape:window-width="1920"
     inkscape:window-height="991"
     inkscape:window-x="-9"
     inkscape:window-y="1341"
     inkscape:window-maximized="1"
     inkscape:current-layer="svg31" /><title
     id="title2">RISC-V logo (square)</title><metadata
     id="metadata4"><rdf:RDF><cc:Work
         rdf:about=""><dc:format>image/svg+xml</dc:format><dc:type
           rdf:resource="http://purl.org/dc/dcmitype/StillImage" /><dc:title>RISC-V logo (square)</dc:title></cc:Work></rdf:RDF></metadata><defs
     id="defs9"><clipPath
       id="cvfa"><path
         d="m 12,344 h 72 v 56.47 H 12 Z"
         id="path6" /></clipPath></defs><rect
     style="fill:#ffffff;stroke:#ff2828;stroke-width:0;stroke-linejoin:round"
     id="rect292"
     width="96"
     height="96"
     x="5e-07"
     y="5e-07"
     inkscape:label="background" /><g
     transform="matrix(2.2928111,0,0,-2.3110255,-60.906234,925.49638)"
     id="g29"><g
       clip-path="url(#cvfa)"
       id="g27"><path
         d="m 49.92,387.3 c 0,-5.937 -3.726,-11.54 -10.94,-12.77 l 10.16,-11.88 1.014,1.346 18.28,25.65 v 10.87 h -29.57 c 7.334,-1.231 11.06,-7.172 11.06,-13.22 z"
         style="fill:#f6b21a"
         id="path11" /><path
         d="m 55.11,360.5 13.32,18.6 V 358.93 H 54.1 Z m -25.95,19.49 h 7.108 c 5.081,0 7.677,3.699 7.677,7.283 0,3.588 -2.486,7.287 -7.677,7.287 h -9.704 v -35.63 h 17.72 l -15.24,18.26 v 2.801 z"
         style="fill:#2a3172"
         id="path13"
         sodipodi:nodetypes="ccccccssscccccc" /></g></g></svg>
