<svg xmlns="http://www.w3.org/2000/svg" xmlns:xlink="http://www.w3.org/1999/xlink" width="100" height="100"><g transform="translate(53 53)"><circle cx="-3" cy="-3" r="45" style="fill:#fff;stroke:#ff2828;stroke-width:0;stroke-linejoin:round"/><path stroke="#000" stroke-linejoin="round" stroke-width=".95238" d="M-11.095-16.81h12.38c7.62 0 7.62 7.62 0 7.62h-12.38zM-40.62 18.43h38.095V7.952h-8.571V.333h9.524C8.905.333 3.19 18.43 11.762 18.43h23.81V.333h-5.715v1.905c0 7.62-8.571 6.667-9.524 1.905C19.381-.62 15.571-4.43 14.62-4.43c14.286-7.619 5.714-22.857-5.714-22.857h-44.762v10.476h9.524V7.952H-40.62z"/><g mask="url(#a)" transform="matrix(.95238 0 0 .95238 -3 -3)"><circle r="43" fill="none" stroke="#000" stroke-width="9"/><path id="b" stroke="#000" stroke-linejoin="round" stroke-width="3" d="m46 3 5-3-5-3Z"/><use xlink:href="#b" transform="rotate(11.25)"/><use xlink:href="#b" transform="rotate(22.5)"/><use xlink:href="#b" transform="rotate(33.75)"/><use xlink:href="#b" transform="rotate(45)"/><use xlink:href="#b" transform="rotate(56.25)"/><use xlink:href="#b" transform="rotate(67.5)"/><use xlink:href="#b" transform="rotate(78.75)"/><use xlink:href="#b" transform="rotate(90)"/><use xlink:href="#b" transform="rotate(101.25)"/><use xlink:href="#b" transform="rotate(112.5)"/><use xlink:href="#b" transform="rotate(123.75)"/><use xlink:href="#b" transform="rotate(135)"/><use xlink:href="#b" transform="rotate(146.25)"/><use xlink:href="#b" transform="rotate(157.5)"/><use xlink:href="#b" transform="rotate(168.75)"/><use xlink:href="#b" transform="scale(-1)"/><use xlink:href="#b" transform="rotate(-168.75)"/><use xlink:href="#b" transform="rotate(-157.5)"/><use xlink:href="#b" transform="rotate(-146.25)"/><use xlink:href="#b" transform="rotate(-135)"/><use xlink:href="#b" transform="rotate(-123.75)"/><use xlink:href="#b" transform="rotate(-112.5)"/><use xlink:href="#b" transform="rotate(-101.25)"/><use xlink:href="#b" transform="rotate(-90)"/><use xlink:href="#b" transform="rotate(-78.75)"/><use xlink:href="#b" transform="rotate(-67.5)"/><use xlink:href="#b" transform="rotate(-56.25)"/><use xlink:href="#b" transform="rotate(-45)"/><use xlink:href="#b" transform="rotate(-33.75)"/><use xlink:href="#b" transform="rotate(-22.5)"/><use xlink:href="#b" transform="rotate(-11.25)"/><path id="c" stroke="#000" stroke-linejoin="round" stroke-width="6" d="m-7-42 7 7 7-7z"/><use xlink:href="#c" transform="rotate(72)"/><use xlink:href="#c" transform="rotate(144)"/><use xlink:href="#c" transform="rotate(-144)"/><use xlink:href="#c" transform="rotate(-72)"/></g><mask id="a"><path fill="#fff" d="M-60-60H60V60H-60Z"/><circle id="d" cx="0" cy="-40" r="3"/><use xlink:href="#d" transform="rotate(72)"/><use xlink:href="#d" transform="rotate(144)"/><use xlink:href="#d" transform="rotate(-144)"/><use xlink:href="#d" transform="rotate(-72)"/></mask></g></svg>